<?xml version="1.0" encoding="UTF-8"?>
<svg id="Layer_2" data-name="Layer 2" xmlns="http://www.w3.org/2000/svg" viewBox="0 0 806.41 132.38">
  <defs>
    <style>
      .cls-1 {
        fill: none;
        stroke: #859cad;
        stroke-width: 4px;
      }

      .cls-2 {
        fill: #3b4c59;
        stroke-width: 0px;
      }
    </style>
  </defs>
  <g id="buymygear_-_light" data-name="buymygear - light">
    <g>
      <path class="cls-2" d="M0,104.06V3.38h40.31c7.41,0,13.58,1.1,18.53,3.29,4.95,2.2,8.67,5.24,11.16,9.12s3.74,8.35,3.74,13.4c0,3.93-.79,7.38-2.36,10.35-1.57,2.97-3.73,5.39-6.46,7.28-2.74,1.88-5.86,3.22-9.37,4.01v.98c3.83.16,7.43,1.25,10.79,3.24,3.36,2,6.09,4.79,8.19,8.38,2.1,3.59,3.15,7.86,3.15,12.81,0,5.34-1.32,10.1-3.96,14.28-2.64,4.18-6.53,7.48-11.68,9.91-5.15,2.43-11.49,3.64-19.03,3.64H0ZM21.29,45.51h15.78c2.92,0,5.51-.52,7.79-1.55,2.28-1.03,4.08-2.5,5.41-4.4,1.33-1.9,1.99-4.18,1.99-6.83,0-3.64-1.29-6.57-3.86-8.8-2.57-2.23-6.22-3.34-10.94-3.34h-16.17v24.93ZM21.29,86.66h17.35c5.93,0,10.26-1.14,12.98-3.42,2.72-2.28,4.08-5.32,4.08-9.12,0-2.79-.67-5.24-2.02-7.37-1.34-2.13-3.25-3.8-5.73-5.01-2.48-1.21-5.42-1.82-8.82-1.82h-17.85v26.74Z"/>
      <path class="cls-2" d="M139.52,71.91V28.55h20.94v75.51h-20.11v-13.72h-.79c-1.7,4.42-4.53,7.98-8.48,10.67-3.95,2.69-8.76,4.03-14.43,4.03-5.05,0-9.49-1.15-13.32-3.44s-6.83-5.56-8.97-9.78c-2.15-4.23-3.24-9.29-3.27-15.19V28.55h20.94v44.34c.03,4.46,1.23,7.98,3.59,10.57,2.36,2.59,5.52,3.88,9.49,3.88,2.52,0,4.88-.58,7.08-1.75,2.2-1.16,3.97-2.89,5.33-5.19,1.36-2.29,2.02-5.13,1.99-8.5Z"/>
      <path class="cls-2" d="M190.11,132.38c-2.65,0-5.14-.21-7.45-.61-2.31-.41-4.22-.93-5.73-1.55l4.72-15.63c2.46.75,4.68,1.16,6.66,1.23,1.98.06,3.7-.39,5.16-1.38,1.46-.98,2.65-2.65,3.56-5.01l1.23-3.2-27.09-77.68h22.02l15.63,55.46h.79l15.78-55.46h22.17l-29.35,83.67c-1.41,4.06-3.32,7.61-5.73,10.64-2.41,3.03-5.45,5.38-9.12,7.03-3.67,1.65-8.1,2.48-13.27,2.48Z"/>
      <path class="cls-2" d="M258.69,3.38h26.25l27.73,67.65h1.18L341.58,3.38h26.25v100.69h-20.65V38.53h-.84l-26.06,65.04h-14.06l-26.06-65.29h-.84v65.78h-20.65V3.38Z"/>
      <path class="cls-2" d="M397.87,132.38c-2.65,0-5.14-.21-7.45-.61-2.31-.41-4.22-.93-5.73-1.55l4.72-15.63c2.46.75,4.68,1.16,6.66,1.23,1.98.06,3.7-.39,5.16-1.38,1.46-.98,2.65-2.65,3.56-5.01l1.23-3.2-27.09-77.68h22.02l15.63,55.46h.79l15.78-55.46h22.17l-29.35,83.67c-1.41,4.06-3.32,7.61-5.73,10.64-2.41,3.03-5.45,5.38-9.12,7.03-3.67,1.65-8.1,2.48-13.27,2.48Z"/>
      <path class="cls-1" d="M513.65,66.21v-16.03h42.13v12.68c0,8.85-1.87,16.44-5.6,22.79-3.74,6.34-8.88,11.23-15.44,14.65-6.56,3.42-14.06,5.14-22.52,5.14-9.44,0-17.73-2.09-24.88-6.27-7.15-4.18-12.71-10.13-16.69-17.85-3.98-7.72-5.97-16.89-5.97-27.51,0-8.16,1.19-15.45,3.56-21.85,2.38-6.41,5.71-11.84,10-16.3,4.29-4.46,9.29-7.85,15-10.18,5.7-2.33,11.88-3.49,18.53-3.49,5.7,0,11.01.83,15.93,2.48,4.92,1.66,9.28,3.99,13.1,7.01,3.82,3.02,6.94,6.6,9.37,10.74s3.98,8.71,4.67,13.69h-21.63c-.69-2.39-1.66-4.51-2.9-6.37-1.25-1.85-2.76-3.42-4.55-4.72s-3.82-2.29-6.1-2.97c-2.28-.69-4.79-1.03-7.55-1.03-5.15,0-9.66,1.28-13.54,3.83-3.88,2.56-6.91,6.27-9.07,11.13s-3.25,10.81-3.25,17.82,1.06,12.98,3.2,17.9,5.15,8.66,9.05,11.23c3.9,2.57,8.51,3.86,13.82,3.86,4.82,0,8.94-.86,12.36-2.58,3.42-1.72,6.05-4.15,7.87-7.3,1.82-3.15,2.32-6.03,2.32-10.32l-21.22-.2Z"/>
      <path class="cls-1" d="M589.01,71.17v.54c0,3.74.7,6.96,2.09,9.69,1.39,2.72,3.37,4.82,5.92,6.29,2.56,1.47,5.59,2.21,9.09,2.21,2.33,0,4.46-.33,6.39-.98,1.93-.66,3.59-1.64,4.97-2.95,1.38-1.31,2.42-2.92,3.15-4.82l19.37,1.28c-.98,4.65-2.99,8.71-6.02,12.17s-6.93,6.15-11.7,8.06-10.27,2.88-16.49,2.88c-7.77,0-14.45-1.58-20.03-4.74-5.59-3.16-9.89-7.65-12.9-13.47-3.02-5.82-4.52-12.71-4.52-20.67s1.51-14.58,4.52-20.45c3.01-5.87,7.27-10.44,12.76-13.72s11.94-4.92,19.35-4.92c4.98,0,9.63.79,13.94,2.38,4.31,1.59,8.08,3.97,11.31,7.15,3.23,3.18,5.74,7.17,7.55,11.97,1.8,4.8,2.7,10.41,2.7,16.84v5.75l-51.42-.49ZM589.04,58.61c-.01.25-.02.51-.02.76M620.72,58.68c0-3.02-.66-5.69-1.97-8.01s-3.12-4.15-5.43-5.48c-2.31-1.33-4.99-1.99-8.04-1.99s-5.99.73-8.43,2.19c-2.44,1.46-4.35,3.41-5.73,5.85-1.26,2.23-1.96,4.69-2.09,7.37l31.69.08Z"/>
      <path class="cls-1" d="M675.64,105.49c-4.82,0-9.11-.84-12.88-2.53-3.77-1.69-6.74-4.2-8.92-7.52s-3.27-7.48-3.27-12.46c0-4.2.77-7.72,2.31-10.57,1.54-2.85,3.64-5.14,6.29-6.88,2.65-1.74,5.68-3.05,9.07-3.93,3.39-.88,6.96-1.51,10.69-1.87,4.39-.46,7.93-.89,10.62-1.3s4.64-1.02,5.85-1.84c1.21-.82,1.82-2.03,1.82-3.64v-.3c0-3.11-.98-5.52-2.93-7.23-1.95-1.7-4.71-2.56-8.28-2.56-3.77,0-6.77.83-9,2.48-2.23,1.66-3.7,3.73-4.42,6.22l-19.37-1.57c.98-4.59,2.92-8.56,5.8-11.92,2.88-3.36,6.61-5.95,11.18-7.77,4.57-1.82,9.87-2.73,15.9-2.73,4.2,0,8.22.49,12.07,1.47s7.28,2.51,10.28,4.57,5.37,4.71,7.1,7.94c1.74,3.23,2.61,7.09,2.61,11.58v50.93h-19.86v-10.47h-.59c-1.21,2.36-2.83,4.43-4.87,6.22-2.03,1.79-4.47,3.18-7.33,4.18-2.85,1-6.15,1.5-9.88,1.5ZM681.64,91.03c3.08,0,5.8-.61,8.16-1.84,2.36-1.23,4.21-2.89,5.56-4.99,1.34-2.1,2.02-4.47,2.02-7.13v-8.01c-.66.43-1.55.81-2.68,1.16s-2.4.66-3.81.93c-1.41.28-2.82.53-4.23.74s-2.69.4-3.83.57c-2.46.36-4.6.93-6.44,1.72-1.84.79-3.26,1.84-4.28,3.17-1.02,1.33-1.52,2.97-1.52,4.94,0,2.85,1.04,5.02,3.12,6.51,2.08,1.49,4.73,2.24,7.94,2.24Z"/>
      <path class="cls-1" d="M734.43,104.06V28.55h20.3v13.17h.79c1.38-4.69,3.69-8.23,6.93-10.64,3.25-2.41,6.98-3.61,11.21-3.61,1.05,0,2.18.07,3.39.2,1.21.13,2.28.31,3.2.54v18.58c-.98-.29-2.34-.56-4.08-.79-1.74-.23-3.33-.34-4.77-.34-3.08,0-5.83.66-8.24,1.99-2.41,1.33-4.31,3.17-5.7,5.53-1.39,2.36-2.09,5.08-2.09,8.16v42.72h-20.94Z"/>
      <path class="cls-2" d="M794.61,105.34c-3.25,0-6.02-1.16-8.33-3.47-2.31-2.31-3.47-5.09-3.47-8.33s1.16-5.96,3.47-8.26c2.31-2.29,5.09-3.44,8.33-3.44s5.9,1.15,8.26,3.44c2.36,2.29,3.54,5.05,3.54,8.26,0,2.16-.55,4.14-1.65,5.92-1.1,1.79-2.53,3.21-4.3,4.28-1.77,1.06-3.72,1.6-5.85,1.6Z"/>
    </g>
  </g>
</svg>